<svg width="32" height="32" viewBox="0 0 32 32" fill="none" xmlns="http://www.w3.org/2000/svg">
<g clip-path="url(#clip0_108_46)">
<path d="M11.4049 17.8128C12.7404 18.8355 14.4107 19.4246 16.108 19.4716C16.1169 19.4718 16.1257 19.4719 16.1344 19.4719C16.6402 19.4719 17.057 19.0691 17.071 18.5604C17.0854 18.0428 16.6774 17.6116 16.1598 17.5973C13.3997 17.5209 11.0806 15.7033 10.3892 13.0743C9.99298 11.5678 10.1907 10.009 10.9461 8.68513C11.7004 7.36307 12.9466 6.38107 14.455 5.92019C15.9725 5.45657 17.5522 5.59844 18.9031 6.31994C20.2147 7.02044 21.1875 8.23094 21.6436 9.72938C21.9465 10.8764 21.8458 11.9446 21.3077 13.2974C21.1655 13.6552 20.7252 14.4873 19.7126 14.4873C19.5477 14.4873 19.416 14.3796 19.3522 14.3155C19.1919 14.1544 19.0968 13.9163 19.098 13.6798L19.1287 8.71938C19.132 8.20163 18.7148 7.77932 18.197 7.77613C17.7471 7.77113 17.3719 8.08557 17.2772 8.50619C16.8628 8.28938 16.4019 8.17432 15.917 8.17432C15.0318 8.17432 14.165 8.572 13.5388 9.26532C12.9044 9.96775 12.555 10.9231 12.555 11.9555C12.555 12.9828 12.8833 13.9483 13.4793 14.6739C14.0983 15.4276 14.9644 15.8599 15.8554 15.8599C16.5341 15.8599 17.1578 15.6191 17.6729 15.2029C17.7742 15.3593 17.8912 15.5054 18.023 15.6379C18.4877 16.1049 19.0878 16.3621 19.7126 16.3621C21.4777 16.3621 22.5939 15.1369 23.05 13.9903C23.7417 12.2509 23.8655 10.7832 23.4513 9.23119C23.4487 9.22144 23.4459 9.21169 23.443 9.20207C22.8437 7.21619 21.5451 5.60526 19.7864 4.66594C17.9927 3.70782 15.9047 3.51644 13.907 4.12688C11.9397 4.72807 10.3097 6.01682 9.31754 7.75576C8.31742 9.50863 8.05404 11.5667 8.57586 13.5509C9.02729 15.2674 10.0055 16.7411 11.4049 17.8128V17.8128ZM15.8555 13.985C15.0028 13.985 14.43 12.9356 14.43 11.9556C14.43 10.7624 15.1861 10.0494 15.917 10.0494C16.6838 10.0494 17.2192 10.8259 17.2192 11.9379C17.2192 13.0667 16.6075 13.985 15.8555 13.985Z" fill="url(#paint0_linear_108_46)"/>
<path d="M31.833 31.5963C31.9408 31.4401 31.9996 31.2521 32 31.0624V15.5312C32.0005 15.2644 31.8815 15.0021 31.6808 14.8265L27.6875 11.2978V0.9375C27.6875 0.41975 27.2677 0 26.75 0H5.25011C4.73236 0 4.31261 0.41975 4.31261 0.9375V11.2978L0.31936 14.8265C0.11861 15.0021 -0.000389699 15.2644 0.000172801 15.5312V31.0624C-0.0100772 31.5669 0.437173 32.0101 0.941048 31.9999H31.0592C31.364 32.0016 31.6596 31.8464 31.833 31.5963ZM1.87517 17.16L11.5049 22.754L1.87517 29.2926V17.16ZM13.3037 23.7989L15.5292 25.0917C15.8204 25.2609 16.1798 25.2609 16.471 25.0917L18.826 23.7237L28.0636 30.1248H3.98724L13.3037 23.7989ZM20.6167 22.6834L30.125 17.16V29.2721L20.6167 22.6834ZM29.468 15.3733L27.6875 16.4076V13.7999L29.468 15.3733ZM25.8125 1.875V17.4967L16.0001 23.1969L6.18761 17.4967V1.875H25.8125ZM4.31261 16.4076L2.53211 15.3733L4.31261 13.7999V16.4076Z" fill="url(#paint1_linear_108_46)"/>
</g>
<defs>
<linearGradient id="paint0_linear_108_46" x1="16.0014" y1="3.77637" x2="16.0014" y2="19.4719" gradientUnits="userSpaceOnUse">
<stop stop-color="#56CCF2"/>
<stop offset="1" stop-color="#2F80ED"/>
</linearGradient>
<linearGradient id="paint1_linear_108_46" x1="16" y1="0" x2="16" y2="32" gradientUnits="userSpaceOnUse">
<stop stop-color="#56CCF2"/>
<stop offset="1" stop-color="#2F80ED"/>
</linearGradient>
<clipPath id="clip0_108_46">
<rect width="32" height="32" fill="white"/>
</clipPath>
</defs>
</svg>
