<svg width="32" height="32" viewBox="0 0 32 32" fill="none" xmlns="http://www.w3.org/2000/svg">
<path d="M16.0002 2.66675C13.1712 2.66675 10.4581 3.79055 8.45769 5.79094C6.4573 7.79133 5.3335 10.5044 5.3335 13.3334C5.3335 20.5334 14.7335 28.6667 15.1335 29.0134C15.375 29.22 15.6824 29.3335 16.0002 29.3335C16.318 29.3335 16.6253 29.22 16.8668 29.0134C17.3335 28.6667 26.6668 20.5334 26.6668 13.3334C26.6668 10.5044 25.543 7.79133 23.5426 5.79094C21.5422 3.79055 18.8291 2.66675 16.0002 2.66675V2.66675ZM16.0002 26.2001C13.1602 23.5334 8.00016 17.7867 8.00016 13.3334C8.00016 11.2117 8.84302 9.17685 10.3433 7.67656C11.8436 6.17627 13.8784 5.33341 16.0002 5.33341C18.1219 5.33341 20.1567 6.17627 21.657 7.67656C23.1573 9.17685 24.0002 11.2117 24.0002 13.3334C24.0002 17.7867 18.8402 23.5467 16.0002 26.2001ZM16.0002 8.00008C14.9453 8.00008 13.9142 8.31288 13.0371 8.89891C12.1601 9.48494 11.4765 10.3179 11.0728 11.2924C10.6691 12.267 10.5635 13.3393 10.7693 14.3739C10.9751 15.4085 11.483 16.3588 12.2289 17.1047C12.9748 17.8505 13.9251 18.3585 14.9597 18.5643C15.9942 18.7701 17.0666 18.6644 18.0411 18.2608C19.0157 17.8571 19.8486 17.1735 20.4347 16.2965C21.0207 15.4194 21.3335 14.3882 21.3335 13.3334C21.3335 11.9189 20.7716 10.5624 19.7714 9.56218C18.7712 8.56198 17.4147 8.00008 16.0002 8.00008ZM16.0002 16.0001C15.4727 16.0001 14.9572 15.8437 14.5186 15.5507C14.0801 15.2577 13.7383 14.8412 13.5365 14.3539C13.3347 13.8666 13.2818 13.3305 13.3847 12.8132C13.4876 12.2959 13.7416 11.8207 14.1145 11.4478C14.4875 11.0749 14.9626 10.8209 15.4799 10.718C15.9972 10.6151 16.5334 10.6679 17.0207 10.8697C17.5079 11.0716 17.9244 11.4134 18.2174 11.8519C18.5104 12.2904 18.6668 12.806 18.6668 13.3334C18.6668 14.0407 18.3859 14.7189 17.8858 15.219C17.3857 15.7191 16.7074 16.0001 16.0002 16.0001Z" fill="url(#paint0_linear_603_8042)"/>
<defs>
<linearGradient id="paint0_linear_603_8042" x1="16.0002" y1="2.66675" x2="16.0002" y2="29.3335" gradientUnits="userSpaceOnUse">
<stop stop-color="#56CCF2"/>
<stop offset="1" stop-color="#2F80ED"/>
</linearGradient>
</defs>
</svg>
