<svg width="32" height="32" viewBox="0 0 32 32" fill="none" xmlns="http://www.w3.org/2000/svg">
<g clip-path="url(#clip0_109_75)">
<path d="M31.1762 23.6021L27.1981 19.624C26.1013 18.5274 24.3166 18.5274 23.22 19.624L21.4117 21.4322C20.5808 22.263 19.2288 22.2629 18.3982 21.4325L10.5608 13.5883C9.72798 12.7555 9.72786 11.4076 10.5608 10.5746C10.852 10.2834 11.6884 9.44707 12.369 8.76645C13.4609 7.67456 13.4762 5.8955 12.3679 4.78738L8.39091 0.822876C7.29416 -0.273812 5.5096 -0.273812 4.41578 0.820002C3.59728 1.63138 3.33328 1.89312 2.96627 2.25694C-0.988728 6.21187 -0.988728 12.6471 2.9661 16.6019L15.3844 29.0267C19.3486 32.9909 25.765 32.9912 29.7294 29.0267L31.1762 27.58C32.2728 26.4834 32.2728 24.6989 31.1762 23.6021ZM5.73891 2.14888C6.10448 1.78331 6.69923 1.78325 7.06597 2.14987L11.043 6.11438C11.4094 6.48082 11.4094 7.07387 11.043 7.44038L10.3799 8.10338L5.07928 2.80275L5.73891 2.14888ZM16.7106 27.7008L4.29229 15.276C1.2324 12.2161 1.06421 7.41138 3.77502 4.15056L9.06029 9.43582C7.67154 11.0101 7.72941 13.4091 9.23448 14.9141L17.0717 22.7579C17.0718 22.7581 17.072 22.7581 17.072 22.7582C18.5754 24.2618 20.9742 24.3234 22.5506 22.9326L27.8358 28.2181C24.5854 30.9242 19.7915 30.7818 16.7106 27.7008ZM29.8501 26.2541L29.187 26.9171L23.883 21.613L24.5459 20.9501C24.9115 20.5845 25.5064 20.5843 25.872 20.9501L29.8501 24.928C30.2157 25.2938 30.2157 25.8886 29.8501 26.2541Z" fill="url(#paint0_linear_109_75)"/>
</g>
<defs>
<linearGradient id="paint0_linear_109_75" x1="15.9993" y1="0" x2="15.9993" y2="32" gradientUnits="userSpaceOnUse">
<stop stop-color="#56CCF2"/>
<stop offset="1" stop-color="#2F80ED"/>
</linearGradient>
<clipPath id="clip0_109_75">
<rect width="32" height="32" fill="white"/>
</clipPath>
</defs>
</svg>
