<?xml version="1.0" encoding="UTF-8" standalone="no"?>
<svg
   width="60"
   height="60"
   viewBox="0 0 60 60"
   fill="none"
   version="1.1"
   id="svg2"
   sodipodi:docname="arktiktur.svg"
   inkscape:version="1.3 (0e150ed6c4, 2023-07-21)"
   xmlns:inkscape="http://www.inkscape.org/namespaces/inkscape"
   xmlns:sodipodi="http://sodipodi.sourceforge.net/DTD/sodipodi-0.dtd"
   xmlns="http://www.w3.org/2000/svg"
   xmlns:svg="http://www.w3.org/2000/svg">
  <sodipodi:namedview
     id="namedview2"
     pagecolor="#ffffff"
     bordercolor="#000000"
     borderopacity="0.25"
     inkscape:showpageshadow="2"
     inkscape:pageopacity="0.0"
     inkscape:pagecheckerboard="0"
     inkscape:deskcolor="#d1d1d1"
     inkscape:zoom="13.55"
     inkscape:cx="30"
     inkscape:cy="30"
     inkscape:window-width="1920"
     inkscape:window-height="1009"
     inkscape:window-x="-8"
     inkscape:window-y="-8"
     inkscape:window-maximized="1"
     inkscape:current-layer="svg2" />
  <circle
     cx="30"
     cy="30"
     r="30"
     fill="url(#paint0_linear_1_628)"
     id="circle1"
     style="fill:#035fa1;fill-opacity:1" />
  <path
     d="M28.4375 43.5938L27.125 42.2812L29.7188 39.6875H24.875C24.6667 40.5 24.2292 41.1719 23.5625 41.7031C22.8958 42.2344 22.125 42.5 21.25 42.5C20.2083 42.5 19.3229 42.1354 18.5938 41.4062C17.8646 40.6771 17.5 39.7917 17.5 38.75C17.5 37.875 17.7656 37.1042 18.2969 36.4375C18.8281 35.7708 19.5 35.3333 20.3125 35.125V24.875C19.5 24.6667 18.8281 24.2292 18.2969 23.5625C17.7656 22.8958 17.5 22.125 17.5 21.25C17.5 20.2083 17.8646 19.3229 18.5938 18.5938C19.3229 17.8646 20.2083 17.5 21.25 17.5C22.125 17.5 22.8958 17.7656 23.5625 18.2969C24.2292 18.8281 24.6667 19.5 24.875 20.3125H29.7188L27.125 17.7188L28.4375 16.4062L33.3125 21.25L28.4375 26.0938L27.125 24.7812L29.7188 22.1875H24.875C24.7083 22.8542 24.3854 23.4271 23.9062 23.9062C23.4271 24.3854 22.8542 24.7083 22.1875 24.875V35.125C22.8542 35.2917 23.4271 35.6146 23.9062 36.0938C24.3854 36.5729 24.7083 37.1458 24.875 37.8125H29.7188L27.125 35.2188L28.4375 33.9062L33.3125 38.75L28.4375 43.5938ZM38.75 42.5C37.7083 42.5 36.8229 42.1354 36.0938 41.4062C35.3646 40.6771 35 39.7917 35 38.75C35 37.875 35.2656 37.1042 35.7969 36.4375C36.3281 35.7708 37 35.3333 37.8125 35.125V24.875C37 24.6667 36.3281 24.2292 35.7969 23.5625C35.2656 22.8958 35 22.125 35 21.25C35 20.2083 35.3646 19.3229 36.0938 18.5938C36.8229 17.8646 37.7083 17.5 38.75 17.5C39.7917 17.5 40.6771 17.8646 41.4062 18.5938C42.1354 19.3229 42.5 20.2083 42.5 21.25C42.5 22.125 42.2344 22.8958 41.7031 23.5625C41.1719 24.2292 40.5 24.6667 39.6875 24.875V35.125C40.5 35.3333 41.1719 35.7708 41.7031 36.4375C42.2344 37.1042 42.5 37.875 42.5 38.75C42.5 39.7917 42.1354 40.6771 41.4062 41.4062C40.6771 42.1354 39.7917 42.5 38.75 42.5ZM21.25 40.625C21.7917 40.625 22.2396 40.4427 22.5938 40.0781C22.9479 39.7135 23.125 39.2708 23.125 38.75C23.125 38.2083 22.9479 37.7604 22.5938 37.4062C22.2396 37.0521 21.7917 36.875 21.25 36.875C20.7292 36.875 20.2865 37.0521 19.9219 37.4062C19.5573 37.7604 19.375 38.2083 19.375 38.75C19.375 39.2708 19.5573 39.7135 19.9219 40.0781C20.2865 40.4427 20.7292 40.625 21.25 40.625ZM38.75 40.625C39.2917 40.625 39.7396 40.4427 40.0938 40.0781C40.4479 39.7135 40.625 39.2708 40.625 38.75C40.625 38.2083 40.4479 37.7604 40.0938 37.4062C39.7396 37.0521 39.2917 36.875 38.75 36.875C38.2292 36.875 37.7865 37.0521 37.4219 37.4062C37.0573 37.7604 36.875 38.2083 36.875 38.75C36.875 39.2708 37.0573 39.7135 37.4219 40.0781C37.7865 40.4427 38.2292 40.625 38.75 40.625ZM21.25 23.125C21.7917 23.125 22.2396 22.9427 22.5938 22.5781C22.9479 22.2135 23.125 21.7708 23.125 21.25C23.125 20.7083 22.9479 20.2604 22.5938 19.9062C22.2396 19.5521 21.7917 19.375 21.25 19.375C20.7292 19.375 20.2865 19.5521 19.9219 19.9062C19.5573 20.2604 19.375 20.7083 19.375 21.25C19.375 21.7708 19.5573 22.2135 19.9219 22.5781C20.2865 22.9427 20.7292 23.125 21.25 23.125ZM38.75 23.125C39.2917 23.125 39.7396 22.9427 40.0938 22.5781C40.4479 22.2135 40.625 21.7708 40.625 21.25C40.625 20.7083 40.4479 20.2604 40.0938 19.9062C39.7396 19.5521 39.2917 19.375 38.75 19.375C38.2292 19.375 37.7865 19.5521 37.4219 19.9062C37.0573 20.2604 36.875 20.7083 36.875 21.25C36.875 21.7708 37.0573 22.2135 37.4219 22.5781C37.7865 22.9427 38.2292 23.125 38.75 23.125Z"
     fill="white"
     id="path1" />
  <defs
     id="defs2">
    <linearGradient
       id="paint0_linear_1_628"
       x1="60"
       y1="51.3333"
       x2="-1.87375"
       y2="47.7578"
       gradientUnits="userSpaceOnUse">
      <stop
         stop-color="#7F1CFC"
         id="stop1"
         offset="1"
         style="stop-color:#281cfc;stop-opacity:1;" />
      <stop
         offset="1"
         stop-color="#FF1C60"
         id="stop2" />
    </linearGradient>
  </defs>
</svg>
