<?xml version="1.0" encoding="UTF-8" standalone="no"?>
<svg
   width="60"
   height="60"
   viewBox="0 0 60 60"
   fill="none"
   version="1.1"
   id="svg2"
   sodipodi:docname="consulting1.svg"
   inkscape:version="1.3 (0e150ed6c4, 2023-07-21)"
   xmlns:inkscape="http://www.inkscape.org/namespaces/inkscape"
   xmlns:sodipodi="http://sodipodi.sourceforge.net/DTD/sodipodi-0.dtd"
   xmlns="http://www.w3.org/2000/svg"
   xmlns:svg="http://www.w3.org/2000/svg">
  <sodipodi:namedview
     id="namedview2"
     pagecolor="#ffffff"
     bordercolor="#000000"
     borderopacity="0.25"
     inkscape:showpageshadow="2"
     inkscape:pageopacity="0.0"
     inkscape:pagecheckerboard="0"
     inkscape:deskcolor="#d1d1d1"
     inkscape:zoom="13.55"
     inkscape:cx="30"
     inkscape:cy="30"
     inkscape:window-width="1920"
     inkscape:window-height="1009"
     inkscape:window-x="-8"
     inkscape:window-y="-8"
     inkscape:window-maximized="1"
     inkscape:current-layer="svg2" />
  <circle
     cx="30"
     cy="30"
     r="30"
     fill="url(#paint0_linear_1_648)"
     id="circle1" />
  <path
     d="M45.7188 28.2812L45 26.7188L43.4375 26L45 25.2812L45.7188 23.7188L46.4375 25.2812L48 26L46.4375 26.7188L45.7188 28.2812ZM41.75 22.8125L40.6562 20.5L38.3438 19.4062L40.6562 18.3125L41.75 16L42.8438 18.3125L45.1562 19.4062L42.8438 20.5L41.75 22.8125ZM29.25 43.5C28.5417 43.5 27.9427 43.2552 27.4531 42.7656C26.9635 42.276 26.7188 41.6771 26.7188 40.9688H31.7812C31.7812 41.6771 31.5365 42.276 31.0469 42.7656C30.5573 43.2552 29.9583 43.5 29.25 43.5ZM24.1875 39.0312V37.1562H34.3125V39.0312H24.1875ZM24.3438 35.25C22.9687 34.3542 21.8802 33.2344 21.0781 31.8906C20.276 30.5469 19.875 29.0312 19.875 27.3438C19.875 24.8021 20.8021 22.6042 22.6562 20.75C24.5104 18.8958 26.7083 17.9688 29.25 17.9688C31.7917 17.9688 33.9896 18.8958 35.8438 20.75C37.6979 22.6042 38.625 24.8021 38.625 27.3438C38.625 29.0312 38.2292 30.5469 37.4375 31.8906C36.6458 33.2344 35.5521 34.3542 34.1562 35.25H24.3438ZM25.0312 33.375H33.5C34.5 32.7083 35.2917 31.8438 35.875 30.7812C36.4583 29.7188 36.75 28.5729 36.75 27.3438C36.75 25.2812 36.0156 23.5156 34.5469 22.0469C33.0781 20.5781 31.3125 19.8438 29.25 19.8438C27.1875 19.8438 25.4219 20.5781 23.9531 22.0469C22.4844 23.5156 21.75 25.2812 21.75 27.3438C21.75 28.5729 22.0417 29.7188 22.625 30.7812C23.2083 31.8438 24.0104 32.7083 25.0312 33.375Z"
     fill="white"
     id="path1" />
  <defs
     id="defs2">
    <linearGradient
       id="paint0_linear_1_648"
       x1="60"
       y1="51.3333"
       x2="-1.87375"
       y2="47.7578"
       gradientUnits="userSpaceOnUse">
      <stop
         stop-color="#7F1CFC"
         id="stop1"
         offset="1"
         style="stop-color:#035fa1;stop-opacity:1;" />
      <stop
         offset="1"
         stop-color="#FF1C60"
         id="stop2" />
    </linearGradient>
  </defs>
</svg>
