<svg width="50" height="50" viewBox="0 0 50 50" fill="none" xmlns="http://www.w3.org/2000/svg">
<rect width="50" height="50" rx="25" fill="#D5E6FB"/>
<path d="M33.6101 32.1898C34.2368 31.3498 34.6669 30.3797 34.8686 29.3512C35.0703 28.3228 35.0385 27.2621 34.7755 26.2476C34.5125 25.2331 34.025 24.2905 33.3491 23.4896C32.6732 22.6886 31.826 22.0496 30.8701 21.6198C30.6619 20.4219 30.1834 19.2872 29.4709 18.302C28.7585 17.3167 27.8308 16.5068 26.7585 15.9338C25.6861 15.3608 24.4972 15.0398 23.2822 14.9951C22.0671 14.9505 20.8579 15.1834 19.7463 15.6761C18.6348 16.1688 17.6502 16.9084 16.8673 17.8387C16.0844 18.7689 15.5239 19.8654 15.2283 21.0448C14.9327 22.2242 14.9098 23.4554 15.1614 24.645C15.413 25.8345 15.9324 26.9511 16.6801 27.9098L15.2901 29.2898C15.1514 29.4304 15.0574 29.609 15.02 29.803C14.9826 29.997 15.0035 30.1977 15.0801 30.3798C15.1551 30.5624 15.2825 30.7188 15.4463 30.8291C15.61 30.9394 15.8027 30.9988 16.0001 30.9998H21.6901C22.2568 32.1944 23.1501 33.2041 24.2669 33.912C25.3836 34.6199 26.6779 34.9971 28.0001 34.9998H34.0001C34.1975 34.9988 34.3903 34.9394 34.554 34.8291C34.7177 34.7188 34.8451 34.5624 34.9201 34.3798C34.9967 34.1977 35.0176 33.997 34.9802 33.803C34.9429 33.609 34.8489 33.4304 34.7101 33.2898L33.6101 32.1898ZM21.0001 27.9998C21.0015 28.3347 21.0282 28.669 21.0801 28.9998H18.4101L18.7601 28.6598C18.8538 28.5668 18.9282 28.4562 18.979 28.3344C19.0298 28.2125 19.0559 28.0818 19.0559 27.9498C19.0559 27.8178 19.0298 27.6871 18.979 27.5652C18.9282 27.4434 18.8538 27.3328 18.7601 27.2398C18.1997 26.6855 17.7554 26.0251 17.4532 25.297C17.151 24.569 16.997 23.7881 17.0001 22.9998C17.0001 21.4085 17.6323 19.8824 18.7575 18.7572C19.8827 17.6319 21.4088 16.9998 23.0001 16.9998C24.2418 16.9923 25.4546 17.3742 26.468 18.0917C27.4815 18.8092 28.2446 19.8262 28.6501 20.9998C28.4301 20.9998 28.2201 20.9998 28.0001 20.9998C26.1436 20.9998 24.3631 21.7373 23.0504 23.0501C21.7376 24.3628 21.0001 26.1433 21.0001 27.9998ZM31.5401 32.9998L31.5901 33.0498H28.0001C26.8435 33.0477 25.7233 32.6447 24.8304 31.9094C23.9376 31.1741 23.3273 30.152 23.1035 29.0172C22.8797 27.8823 23.0563 26.705 23.6032 25.6858C24.1501 24.6666 25.0334 23.8685 26.1027 23.4275C27.172 22.9865 28.3611 22.9299 29.4674 23.2672C30.5738 23.6046 31.529 24.3151 32.1703 25.2778C32.8115 26.2404 33.0992 27.3956 32.9843 28.5465C32.8694 29.6974 32.359 30.773 31.5401 31.5898C31.3517 31.7744 31.2439 32.026 31.2401 32.2898C31.2407 32.4221 31.2675 32.553 31.319 32.6749C31.3705 32.7968 31.4456 32.9072 31.5401 32.9998Z" fill="url(#paint0_linear_558_61328)"/>
<defs>
<linearGradient id="paint0_linear_558_61328" x1="24.9939" y1="14.9897" x2="24.9939" y2="34.9998" gradientUnits="userSpaceOnUse">
<stop stop-color="#8EBEFF"/>
<stop offset="1" stop-color="#1163D0"/>
</linearGradient>
</defs>
</svg>
