<svg width="19" height="18" viewBox="0 0 19 18" fill="none" xmlns="http://www.w3.org/2000/svg">
<path fill-rule="evenodd" clip-rule="evenodd" d="M9.72274 0C4.58177 0 0.445801 4.05122 0.445801 9.08685C0.445801 13.1002 3.11292 16.5078 6.78504 17.7194C7.24889 17.7951 7.40351 17.5301 7.40351 17.265C7.40351 17.0378 7.40351 16.4699 7.40351 15.7127C4.81369 16.2806 4.27254 14.5011 4.27254 14.5011C3.84735 13.441 3.22888 13.1759 3.22888 13.1759C2.3785 12.608 3.30619 12.608 3.30619 12.608C4.23389 12.6837 4.73639 13.5546 4.73639 13.5546C5.54812 14.9554 6.90101 14.539 7.44216 14.3118C7.51947 13.706 7.75139 13.3274 8.02197 13.1002C5.97331 12.873 3.80869 12.0779 3.80869 8.59465C3.80869 7.61024 4.15658 6.77728 4.77504 6.17149C4.69773 5.94431 4.34985 5.03563 4.85235 3.74833C4.85235 3.74833 5.62543 3.52115 7.40351 4.69487C8.13793 4.50556 8.94966 4.39198 9.72274 4.39198C10.4958 4.39198 11.3076 4.50556 12.042 4.69487C13.8201 3.52115 14.5931 3.74833 14.5931 3.74833C15.0956 4.99777 14.7864 5.90645 14.6704 6.17149C15.2503 6.81514 15.6368 7.61024 15.6368 8.59465C15.6368 12.0779 13.4722 12.8352 11.3849 13.0623C11.7327 13.3274 12.0033 13.8953 12.0033 14.7283C12.0033 15.9399 12.0033 16.9243 12.0033 17.2272C12.0033 17.4543 12.1579 17.7572 12.6604 17.6815C16.3326 16.5078 18.9997 13.1002 18.9997 9.08685C18.9997 4.05122 14.8637 0 9.72274 0Z" fill="#91929B"/>
</svg>
