<?xml version="1.0" encoding="UTF-8" standalone="no"?>
<svg
   width="130"
   height="130"
   viewBox="0 0 130 130"
   fill="none"
   version="1.1"
   id="svg2"
   sodipodi:docname="hardsoft.svg"
   inkscape:version="1.3 (0e150ed6c4, 2023-07-21)"
   xmlns:inkscape="http://www.inkscape.org/namespaces/inkscape"
   xmlns:sodipodi="http://sodipodi.sourceforge.net/DTD/sodipodi-0.dtd"
   xmlns="http://www.w3.org/2000/svg"
   xmlns:svg="http://www.w3.org/2000/svg">
  <sodipodi:namedview
     id="namedview2"
     pagecolor="#ffffff"
     bordercolor="#000000"
     borderopacity="0.25"
     inkscape:showpageshadow="2"
     inkscape:pageopacity="0.0"
     inkscape:pagecheckerboard="0"
     inkscape:deskcolor="#d1d1d1"
     inkscape:zoom="6.2538462"
     inkscape:cx="65"
     inkscape:cy="65"
     inkscape:window-width="1920"
     inkscape:window-height="1009"
     inkscape:window-x="-8"
     inkscape:window-y="-8"
     inkscape:window-maximized="1"
     inkscape:current-layer="svg2" />
  <circle
     cx="65"
     cy="65"
     r="65"
     fill="#F1F1F1"
     id="circle1"
     style="fill:#035fa1;fill-opacity:1" />
  <path
     d="M61 64.75C58.8 64.75 57 64.05 55.6 62.65C54.2 61.25 53.5 59.45 53.5 57.25C53.5 55.05 54.2 53.25 55.6 51.85C57 50.45 58.8 49.75 61 49.75C63.2 49.75 65 50.45 66.4 51.85C67.8 53.25 68.5 55.05 68.5 57.25C68.5 59.45 67.8 61.25 66.4 62.65C65 64.05 63.2 64.75 61 64.75ZM45 80.8V76.1C45 74.9333 45.2917 73.8833 45.875 72.95C46.4583 72.0167 47.3 71.3 48.4 70.8C50.8 69.7333 53.025 68.9667 55.075 68.5C57.125 68.0333 59.1 67.8 61 67.8H62.15C61.95 68.2667 61.8 68.725 61.7 69.175C61.6 69.625 61.5167 70.1667 61.45 70.8H61C59.0667 70.8 57.175 71.0083 55.325 71.425C53.475 71.8417 51.5667 72.5333 49.6 73.5C49.0667 73.7667 48.6667 74.1417 48.4 74.625C48.1333 75.1083 48 75.6 48 76.1V77.8H61.45C61.6167 78.4 61.8167 78.9417 62.05 79.425C62.2833 79.9083 62.5667 80.3667 62.9 80.8H45ZM74.35 83L73.85 79.7C73.2833 79.5333 72.7083 79.2917 72.125 78.975C71.5417 78.6583 71.05 78.3 70.65 77.9L67.9 78.5L66.65 76.4L69 74.2C68.9333 73.9 68.9 73.4833 68.9 72.95C68.9 72.4167 68.9333 72 69 71.7L66.65 69.5L67.9 67.4L70.65 68C71.05 67.6 71.5417 67.2417 72.125 66.925C72.7083 66.6083 73.2833 66.3667 73.85 66.2L74.35 62.9H77.05L77.55 66.2C78.1167 66.3667 78.6917 66.6083 79.275 66.925C79.8583 67.2417 80.35 67.6 80.75 68L83.5 67.4L84.75 69.5L82.4 71.7C82.4667 72 82.5 72.4167 82.5 72.95C82.5 73.4833 82.4667 73.9 82.4 74.2L84.75 76.4L83.5 78.5L80.75 77.9C80.35 78.3 79.8583 78.6583 79.275 78.975C78.6917 79.2917 78.1167 79.5333 77.55 79.7L77.05 83H74.35ZM75.7 76.95C76.9 76.95 77.8667 76.5833 78.6 75.85C79.3333 75.1167 79.7 74.15 79.7 72.95C79.7 71.75 79.3333 70.7833 78.6 70.05C77.8667 69.3167 76.9 68.95 75.7 68.95C74.5 68.95 73.5333 69.3167 72.8 70.05C72.0667 70.7833 71.7 71.75 71.7 72.95C71.7 74.15 72.0667 75.1167 72.8 75.85C73.5333 76.5833 74.5 76.95 75.7 76.95ZM61 61.75C62.3 61.75 63.375 61.325 64.225 60.475C65.075 59.625 65.5 58.55 65.5 57.25C65.5 55.95 65.075 54.875 64.225 54.025C63.375 53.175 62.3 52.75 61 52.75C59.7 52.75 58.625 53.175 57.775 54.025C56.925 54.875 56.5 55.95 56.5 57.25C56.5 58.55 56.925 59.625 57.775 60.475C58.625 61.325 59.7 61.75 61 61.75Z"
     fill="url(#paint0_linear_61_180)"
     id="path1"
     style="fill:#ffffff;fill-opacity:1" />
  <defs
     id="defs2">
    <linearGradient
       id="paint0_linear_61_180"
       x1="84.75"
       y1="78.1972"
       x2="43.8171"
       y2="75.3694"
       gradientUnits="userSpaceOnUse">
      <stop
         stop-color="#7F1CFC"
         id="stop1" />
      <stop
         offset="1"
         stop-color="#FF1C60"
         id="stop2" />
    </linearGradient>
  </defs>
</svg>
