<svg width="21" height="19" viewBox="0 0 21 19" fill="none" xmlns="http://www.w3.org/2000/svg">
<path d="M10.4146 1.71173C13.004 1.71173 13.3107 1.72123 14.3336 1.76692C14.9487 1.77429 15.5578 1.88491 16.1347 2.09397C16.5531 2.252 16.933 2.49408 17.25 2.80463C17.5671 3.11518 17.8142 3.48731 17.9755 3.89708C18.189 4.46213 18.3019 5.05884 18.3094 5.66128C18.3556 6.66325 18.3658 6.96362 18.3658 9.5C18.3658 12.0364 18.3561 12.3367 18.3094 13.3387C18.3019 13.9412 18.189 14.5379 17.9755 15.1029C17.8142 15.5127 17.5671 15.8848 17.25 16.1954C16.933 16.5059 16.5531 16.748 16.1347 16.906C15.5578 17.1151 14.9487 17.2257 14.3336 17.2331C13.3111 17.2783 13.0045 17.2883 10.4146 17.2883C7.82468 17.2883 7.51803 17.2788 6.49556 17.2331C5.88051 17.2257 5.27132 17.1151 4.69445 16.906C4.27611 16.748 3.89619 16.5059 3.57915 16.1954C3.2621 15.8848 3.01496 15.5127 2.85362 15.1029C2.64019 14.5379 2.52725 13.9412 2.51973 13.3387C2.47354 12.3367 2.46338 12.0364 2.46338 9.5C2.46338 6.96362 2.47308 6.66325 2.51973 5.66128C2.52725 5.05884 2.64019 4.46213 2.85362 3.89708C3.01496 3.48731 3.2621 3.11518 3.57915 2.80463C3.89619 2.49408 4.27611 2.252 4.69445 2.09397C5.27132 1.88491 5.88051 1.77429 6.49556 1.76692C7.51849 1.72168 7.82514 1.71173 10.4146 1.71173ZM10.4146 0C7.78219 0 7.45061 0.0108566 6.41612 0.0569973C5.61119 0.0726796 4.8148 0.221964 4.06083 0.4985C3.41404 0.737195 2.82822 1.11125 2.34423 1.59457C1.85036 2.06881 1.46815 2.64295 1.22431 3.27689C0.941992 4.01541 0.789585 4.79548 0.773575 5.58392C0.727392 6.59631 0.716309 6.9211 0.716309 9.49955C0.716309 12.078 0.727392 12.4028 0.774498 13.4161C0.790509 14.2045 0.942916 14.9846 1.22524 15.7231C1.46881 16.357 1.85069 16.9311 2.34423 17.4054C2.82849 17.8889 3.41464 18.2629 4.06175 18.5015C4.81572 18.778 5.61211 18.9273 6.41705 18.943C7.45153 18.9882 7.78173 19 10.4155 19C13.0493 19 13.3795 18.9891 14.414 18.943C15.2189 18.9273 16.0153 18.778 16.7693 18.5015C17.4133 18.257 17.9982 17.8835 18.4864 17.4049C18.9747 16.9263 19.3556 16.3532 19.6049 15.7222C19.8872 14.9837 20.0396 14.2036 20.0556 13.4152C20.1018 12.4028 20.1129 12.078 20.1129 9.49955C20.1129 6.9211 20.1018 6.59631 20.0547 5.58302C20.0387 4.79458 19.8862 4.01451 19.6039 3.27599C19.3604 2.64213 18.9785 2.06799 18.4849 1.59366C18.0007 1.11024 17.4145 0.736173 16.7674 0.497595C16.0134 0.221059 15.2171 0.071775 14.4121 0.0560926C13.3786 0.0108567 13.047 0 10.4146 0Z" fill="#91929B"/>
<path d="M10.4124 4.62158C9.42742 4.62158 8.46453 4.90769 7.64552 5.44371C6.82652 5.97974 6.18818 6.74162 5.81123 7.633C5.43429 8.52439 5.33566 9.50524 5.52783 10.4515C5.71999 11.3978 6.19432 12.267 6.89083 12.9493C7.58733 13.6315 8.47474 14.0961 9.44082 14.2843C10.4069 14.4726 11.4083 14.376 12.3183 14.0067C13.2283 13.6375 14.0061 13.0123 14.5534 12.21C15.1006 11.4078 15.3927 10.4647 15.3927 9.49983C15.3927 8.20604 14.868 6.96524 13.934 6.05039C13 5.13554 11.7333 4.62158 10.4124 4.62158ZM10.4124 12.6663C9.77305 12.6663 9.14803 12.4806 8.6164 12.1327C8.08478 11.7847 7.67043 11.2902 7.42575 10.7116C7.18107 10.133 7.11705 9.49631 7.24178 8.88207C7.36652 8.26783 7.67441 7.70361 8.12652 7.26076C8.57863 6.81792 9.15465 6.51633 9.78175 6.39415C10.4088 6.27197 11.0588 6.33468 11.6495 6.57435C12.2403 6.81401 12.7451 7.21987 13.1004 7.7406C13.4556 8.26134 13.6452 8.87355 13.6452 9.49983C13.6452 10.3396 13.3046 11.1451 12.6983 11.7389C12.0921 12.3327 11.2698 12.6663 10.4124 12.6663Z" fill="#91929B"/>
<path d="M15.5902 5.56847C16.233 5.56847 16.7541 5.05809 16.7541 4.42852C16.7541 3.79895 16.233 3.28857 15.5902 3.28857C14.9474 3.28857 14.4263 3.79895 14.4263 4.42852C14.4263 5.05809 14.9474 5.56847 15.5902 5.56847Z" fill="#91929B"/>
</svg>
