<?xml version="1.0" encoding="UTF-8" standalone="no"?>
<svg
   width="60"
   height="60"
   viewBox="0 0 60 60"
   fill="none"
   version="1.1"
   id="svg2"
   sodipodi:docname="kritis.svg"
   inkscape:version="1.3 (0e150ed6c4, 2023-07-21)"
   xmlns:inkscape="http://www.inkscape.org/namespaces/inkscape"
   xmlns:sodipodi="http://sodipodi.sourceforge.net/DTD/sodipodi-0.dtd"
   xmlns="http://www.w3.org/2000/svg"
   xmlns:svg="http://www.w3.org/2000/svg">
  <sodipodi:namedview
     id="namedview2"
     pagecolor="#ffffff"
     bordercolor="#000000"
     borderopacity="0.25"
     inkscape:showpageshadow="2"
     inkscape:pageopacity="0.0"
     inkscape:pagecheckerboard="0"
     inkscape:deskcolor="#d1d1d1"
     inkscape:zoom="13.55"
     inkscape:cx="30"
     inkscape:cy="30"
     inkscape:window-width="1920"
     inkscape:window-height="1009"
     inkscape:window-x="-8"
     inkscape:window-y="-8"
     inkscape:window-maximized="1"
     inkscape:current-layer="svg2" />
  <circle
     cx="30"
     cy="30"
     r="30"
     fill="url(#paint0_linear_1_658)"
     id="circle1"
     style="fill:#035fa1;fill-opacity:1" />
  <path
     d="M28.625 34.1562L35.75 27.0312L34.4375 25.75L28.7188 31.4688L25.5625 28.3125L24.1875 29.6875L28.625 34.1562ZM30 42.4688C27.0833 41.7396 24.6875 40.0469 22.8125 37.3906C20.9375 34.7344 20 31.8229 20 28.6562V21.2188L30 17.4688L40 21.2188V28.6562C40 31.8229 39.0625 34.7344 37.1875 37.3906C35.3125 40.0469 32.9167 41.7396 30 42.4688ZM30 40.5312C32.3958 39.7396 34.349 38.2448 35.8594 36.0469C37.3698 33.849 38.125 31.3854 38.125 28.6562V22.5312L30 19.4688L21.875 22.5312V28.6562C21.875 31.3854 22.6302 33.849 24.1406 36.0469C25.651 38.2448 27.6042 39.7396 30 40.5312Z"
     fill="white"
     id="path1" />
  <defs
     id="defs2">
    <linearGradient
       id="paint0_linear_1_658"
       x1="60"
       y1="51.3333"
       x2="-1.87375"
       y2="47.7578"
       gradientUnits="userSpaceOnUse">
      <stop
         stop-color="#7F1CFC"
         id="stop1"
         offset="1"
         style="stop-color:#001cfc;stop-opacity:1;" />
      <stop
         offset="1"
         stop-color="#FF1C60"
         id="stop2" />
    </linearGradient>
  </defs>
</svg>
