<svg width="50" height="50" viewBox="0 0 50 50" fill="none" xmlns="http://www.w3.org/2000/svg">
<rect width="50" height="50" rx="25" fill="#D5E6FB"/>
<path d="M25 15C22.8783 15 20.8434 15.8429 19.3431 17.3431C17.8429 18.8434 17 20.8783 17 23C17 28.4 24.05 34.5 24.35 34.76C24.5311 34.9149 24.7616 35.0001 25 35.0001C25.2384 35.0001 25.4689 34.9149 25.65 34.76C26 34.5 33 28.4 33 23C33 20.8783 32.1571 18.8434 30.6569 17.3431C29.1566 15.8429 27.1217 15 25 15ZM25 32.65C22.87 30.65 19 26.34 19 23C19 21.4087 19.6321 19.8826 20.7574 18.7574C21.8826 17.6321 23.4087 17 25 17C26.5913 17 28.1174 17.6321 29.2426 18.7574C30.3679 19.8826 31 21.4087 31 23C31 26.34 27.13 30.66 25 32.65ZM25 19C24.2089 19 23.4355 19.2346 22.7777 19.6741C22.1199 20.1136 21.6072 20.7384 21.3045 21.4693C21.0017 22.2002 20.9225 23.0044 21.0769 23.7804C21.2312 24.5563 21.6122 25.269 22.1716 25.8284C22.731 26.3878 23.4437 26.7688 24.2196 26.9231C24.9956 27.0775 25.7998 26.9983 26.5307 26.6955C27.2616 26.3928 27.8864 25.8801 28.3259 25.2223C28.7654 24.5645 29 23.7911 29 23C29 21.9391 28.5786 20.9217 27.8284 20.1716C27.0783 19.4214 26.0609 19 25 19ZM25 25C24.6044 25 24.2178 24.8827 23.8889 24.6629C23.56 24.4432 23.3036 24.1308 23.1522 23.7654C23.0009 23.3999 22.9613 22.9978 23.0384 22.6098C23.1156 22.2219 23.3061 21.8655 23.5858 21.5858C23.8655 21.3061 24.2219 21.1156 24.6098 21.0384C24.9978 20.9613 25.3999 21.0009 25.7654 21.1522C26.1308 21.3036 26.4432 21.56 26.6629 21.8889C26.8827 22.2178 27 22.6044 27 23C27 23.5304 26.7893 24.0391 26.4142 24.4142C26.0391 24.7893 25.5304 25 25 25Z" fill="url(#paint0_linear_558_61736)"/>
<defs>
<linearGradient id="paint0_linear_558_61736" x1="25" y1="15" x2="25" y2="35.0001" gradientUnits="userSpaceOnUse">
<stop stop-color="#8EBEFF"/>
<stop offset="1" stop-color="#1163D0"/>
</linearGradient>
</defs>
</svg>
