<?xml version="1.0" encoding="UTF-8" standalone="no"?>
<svg
   width="130"
   height="130"
   viewBox="0 0 130 130"
   fill="none"
   version="1.1"
   id="svg5"
   sodipodi:docname="service.svg"
   inkscape:version="1.3 (0e150ed6c4, 2023-07-21)"
   xmlns:inkscape="http://www.inkscape.org/namespaces/inkscape"
   xmlns:sodipodi="http://sodipodi.sourceforge.net/DTD/sodipodi-0.dtd"
   xmlns="http://www.w3.org/2000/svg"
   xmlns:svg="http://www.w3.org/2000/svg">
  <sodipodi:namedview
     id="namedview5"
     pagecolor="#ffffff"
     bordercolor="#000000"
     borderopacity="0.25"
     inkscape:showpageshadow="2"
     inkscape:pageopacity="0.0"
     inkscape:pagecheckerboard="0"
     inkscape:deskcolor="#d1d1d1"
     inkscape:zoom="6.2538462"
     inkscape:cx="65"
     inkscape:cy="65"
     inkscape:window-width="1920"
     inkscape:window-height="1009"
     inkscape:window-x="-8"
     inkscape:window-y="-8"
     inkscape:window-maximized="1"
     inkscape:current-layer="svg5" />
  <circle
     cx="65"
     cy="65"
     r="65"
     fill="#F1F1F1"
     id="circle1"
     style="fill:#035fa1;fill-opacity:1" />
  <path
     d="M62.5 84.9C60.1 84.6 57.8583 83.8833 55.775 82.75C53.6917 81.6166 51.8917 80.175 50.375 78.425C48.8583 76.675 47.6667 74.6583 46.8 72.375C45.9333 70.0916 45.5 67.6333 45.5 65C45.5 62.0666 46.1917 59.2666 47.575 56.6C48.9583 53.9333 50.8167 51.5666 53.15 49.5H47.05V46.5H58.5V57.95H55.5V51.5C53.3667 53.2 51.6667 55.225 50.4 57.575C49.1333 59.925 48.5 62.4 48.5 65C48.5 69.4 49.8333 73.1583 52.5 76.275C55.1667 79.3916 58.5 81.25 62.5 81.85V84.9ZM71.5 83.5V72.05H74.5V78.5C76.6333 76.7666 78.3333 74.7333 79.6 72.4C80.8667 70.0666 81.5 67.6 81.5 65C81.5 60.6 80.1667 56.8416 77.5 53.725C74.8333 50.6083 71.5 48.75 67.5 48.15V45.1C72.3667 45.7 76.4167 47.85 79.65 51.55C82.8833 55.25 84.5 59.7333 84.5 65C84.5 67.9333 83.8083 70.7333 82.425 73.4C81.0417 76.0666 79.1833 78.4333 76.85 80.5H82.95V83.5H71.5Z"
     fill="url(#paint0_linear_61_233)"
     id="path1"
     style="fill:#ffffff;fill-opacity:1" />
  <g
     clip-path="url(#clip0_61_233)"
     id="g2"
     style="fill:#ffffff;fill-opacity:1">
    <path
       d="M62.4832 72.4336L62.1832 70.1168C62.1832 70.0832 62.161 70.0555 62.1168 70.0336C62.072 70.0112 62.0386 70 62.0168 70L59.8336 70.9168L57.3168 66.4832L59.1336 65.1C59.1448 65.0888 59.153 65.0693 59.1584 65.0416C59.1637 65.0139 59.1664 64.9888 59.1664 64.9664L59.1584 64.9336C59.153 64.9112 59.1448 64.8944 59.1336 64.8832L57.3168 63.5L59.8336 59.1168L62.0168 60C62.0498 60.0112 62.0858 60.0056 62.1248 59.9832C62.1637 59.9613 62.1888 59.9336 62.2 59.9L62.4832 57.5504H67.5168L67.8 59.9C67.8112 59.9336 67.8418 59.9613 67.892 59.9832C67.9416 60.0056 67.9832 60.0168 68.0168 60.0168L70.1664 59.1168L72.6832 63.5L70.8496 64.8832C70.8389 64.8944 70.8336 64.9139 70.8336 64.9416V65C70.8336 65.0112 70.8306 65.0307 70.8248 65.0584C70.8194 65.0861 70.8277 65.1056 70.8496 65.1168L72.6832 66.4832L70.1336 70.9168L67.9504 70C67.928 69.9888 67.9 69.9971 67.8664 70.0248C67.8333 70.0525 67.8168 70.0776 67.8168 70.1L67.5168 72.4336H62.4832ZM64.9336 67.5504C65.6445 67.5504 66.2501 67.3003 66.7504 66.8C67.2501 66.2997 67.5 65.6941 67.5 64.9832C67.5 64.2835 67.2501 63.6808 66.7504 63.1752C66.2501 62.6696 65.6445 62.4168 64.9336 62.4168C64.2333 62.4168 63.6304 62.6696 63.1248 63.1752C62.6192 63.6808 62.3664 64.2835 62.3664 64.9832C62.3664 65.6941 62.6192 66.2997 63.1248 66.8C63.6304 67.3003 64.2333 67.5504 64.9336 67.5504ZM64.9336 65.9832C64.6669 65.9832 64.4336 65.8832 64.2336 65.6832C64.0336 65.4832 63.9336 65.2499 63.9336 64.9832C63.9336 64.7165 64.0336 64.4832 64.2336 64.2832C64.4336 64.0832 64.6669 63.9832 64.9336 63.9832C65.2002 63.9832 65.4336 64.0832 65.6336 64.2832C65.8336 64.4832 65.9336 64.7165 65.9336 64.9832C65.9336 65.2499 65.8336 65.4832 65.6336 65.6832C65.4336 65.8832 65.2002 65.9832 64.9336 65.9832ZM64.5168 70.1H65.4664L65.6832 68.4C66.0277 68.2997 66.3666 68.1581 66.7 67.9752C67.0333 67.7917 67.3221 67.5555 67.5664 67.2664L69.1504 67.9504L69.6336 67.1504L68.2664 66.1C68.333 65.9224 68.3832 65.7419 68.4168 65.5584C68.4498 65.3749 68.4664 65.1888 68.4664 65C68.4664 64.8224 68.4498 64.6445 68.4168 64.4664C68.3832 64.2888 68.3442 64.1 68.3 63.9L69.6832 62.8336L69.1832 62.0336L67.6 62.7336C67.3445 62.4333 67.0528 62.1861 66.7248 61.992C66.3973 61.7973 66.0557 61.6667 65.7 61.6L65.4832 59.8832H64.4832L64.3168 61.5664C63.9498 61.6555 63.597 61.7973 63.2584 61.992C62.9197 62.1861 62.6224 62.4277 62.3664 62.7168L60.8168 62.0336L60.3336 62.8336L61.6496 63.8664C61.5941 64.0888 61.5525 64.2917 61.5248 64.4752C61.497 64.6587 61.4832 64.828 61.4832 64.9832C61.4832 65.1501 61.497 65.3251 61.5248 65.508C61.5525 65.6915 61.5941 65.8944 61.6496 66.1168L60.3336 67.1504L60.8168 67.9504L62.3664 67.2832C62.6442 67.5611 62.9528 67.7973 63.292 67.992C63.6306 68.1861 63.9722 68.3221 64.3168 68.4L64.5168 70.1Z"
       fill="url(#paint1_linear_61_233)"
       id="path2"
       style="fill:#ffffff;fill-opacity:1" />
  </g>
  <defs
     id="defs5">
    <linearGradient
       id="paint0_linear_61_233"
       x1="84.5"
       y1="79.1511"
       x2="44.2767"
       y2="76.8734"
       gradientUnits="userSpaceOnUse">
      <stop
         stop-color="#7F1CFC"
         id="stop2" />
      <stop
         offset="1"
         stop-color="#FF1C60"
         id="stop3" />
    </linearGradient>
    <linearGradient
       id="paint1_linear_61_233"
       x1="72.6832"
       y1="70.2838"
       x2="56.8404"
       y2="69.3386"
       gradientUnits="userSpaceOnUse">
      <stop
         stop-color="#7F1CFC"
         id="stop4" />
      <stop
         offset="1"
         stop-color="#FF1C60"
         id="stop5" />
    </linearGradient>
    <clipPath
       id="clip0_61_233">
      <rect
         width="16"
         height="16"
         fill="white"
         transform="translate(57 57)"
         id="rect5" />
    </clipPath>
  </defs>
</svg>
