<svg width="16" height="14" viewBox="0 0 16 14" fill="none" xmlns="http://www.w3.org/2000/svg">
<path d="M15.9972 2.26856C15.3973 2.52972 14.764 2.69294 14.0975 2.79087C14.764 2.39914 15.2973 1.7789 15.5306 1.02807C14.8973 1.38716 14.1975 1.64832 13.4309 1.81154C12.831 1.19129 11.9645 0.799561 11.0314 0.799561C9.23169 0.799561 7.76528 2.23592 7.76528 3.99872C7.76528 4.25988 7.79861 4.48839 7.86527 4.7169C5.16575 4.58632 2.73285 3.31319 1.0998 1.35452C0.833185 1.84418 0.666548 2.3665 0.666548 2.9541C0.666548 4.06401 1.23311 5.04334 2.13295 5.63095C1.59972 5.5983 1.0998 5.46772 0.633221 5.23921V5.27186C0.633221 6.83879 1.76635 8.14457 3.26609 8.43837C2.99947 8.50366 2.69952 8.53631 2.39957 8.53631C2.19961 8.53631 1.96632 8.50366 1.76635 8.47102C2.19961 9.74415 3.39939 10.6908 4.83247 10.6908C3.69934 11.5396 2.29959 12.0619 0.76653 12.0619C0.499911 12.0619 0.233292 12.0619 0 12.0293C1.46641 12.9433 3.1661 13.4656 5.03244 13.4656C11.0647 13.4656 14.3641 8.56895 14.3641 4.32517C14.3641 4.19459 14.3641 4.03137 14.3641 3.90079C14.9973 3.47641 15.5639 2.92145 15.9972 2.26856Z" fill="#91929B"/>
</svg>
